<svg xmlns="http://www.w3.org/2000/svg" xmlns:xlink="http://www.w3.org/1999/xlink" width="2000" zoomAndPan="magnify" viewBox="0 0 1500 1499.999933" height="2000" preserveAspectRatio="xMidYMid meet" version="1.0"><defs><filter x="0%" y="0%" width="100%" height="100%" id="1765dfd1ee"><feColorMatrix values="0 0 0 0 1 0 0 0 0 1 0 0 0 0 1 0 0 0 1 0" color-interpolation-filters="sRGB"/></filter><g/><clipPath id="24ec83d905"><path d="M 230.277344 424.484375 L 830.277344 424.484375 L 830.277344 833.984375 L 230.277344 833.984375 Z M 230.277344 424.484375 " clip-rule="nonzero"/></clipPath><clipPath id="fbfd1062d5"><path d="M 0.277344 83 L 600.277344 83 L 600.277344 364 L 0.277344 364 Z M 0.277344 83 " clip-rule="nonzero"/></clipPath><clipPath id="3d6c2c0a10"><rect x="0" width="601" y="0" height="410"/></clipPath><clipPath id="88d72b83e1"><path d="M 0.640625 6 L 220 6 L 220 295 L 0.640625 295 Z M 0.640625 6 " clip-rule="nonzero"/></clipPath><clipPath id="3864da9f84"><rect x="0" width="619" y="0" height="355"/></clipPath><clipPath id="64e8e56c78"><path d="M 0.640625 0.992188 L 1092.640625 0.992188 L 1092.640625 258.992188 L 0.640625 258.992188 Z M 0.640625 0.992188 " clip-rule="nonzero"/></clipPath><clipPath id="657a3457f4"><path d="M 0.640625 0.992188 L 1092.640625 0.992188 L 1092.640625 258.992188 L 0.640625 258.992188 Z M 0.640625 0.992188 " clip-rule="nonzero"/></clipPath><clipPath id="880eb4d2d9"><path d="M 0.640625 0.992188 L 1092.640625 0.992188 L 1092.640625 258.992188 L 0.640625 258.992188 Z M 0.640625 0.992188 " clip-rule="nonzero"/></clipPath><linearGradient x1="37.270306" gradientTransform="matrix(2.999477, 0, 0, 2.999992, 96.625558, 96.99139)" y1="123.269883" x2="262.300955" gradientUnits="userSpaceOnUse" y2="-101.762133" id="01e22e49b2"><stop stop-opacity="1" stop-color="rgb(78.819275%, 0%, 1.179504%)" offset="0"/><stop stop-opacity="1" stop-color="rgb(78.80249%, 0.00610352%, 1.177979%)" offset="0.191085"/><stop stop-opacity="1" stop-color="rgb(78.785706%, 0.0137329%, 1.177979%)" offset="0.25"/><stop stop-opacity="1" stop-color="rgb(77.706909%, 0.508118%, 1.159668%)" offset="0.253906"/><stop stop-opacity="1" stop-color="rgb(76.628113%, 1.002502%, 1.141357%)" offset="0.257812"/><stop stop-opacity="1" stop-color="rgb(75.547791%, 1.495361%, 1.123047%)" offset="0.261719"/><stop stop-opacity="1" stop-color="rgb(74.468994%, 1.989746%, 1.104736%)" offset="0.265625"/><stop stop-opacity="1" stop-color="rgb(73.390198%, 2.482605%, 1.086426%)" offset="0.269531"/><stop stop-opacity="1" stop-color="rgb(72.311401%, 2.97699%, 1.068115%)" offset="0.273438"/><stop stop-opacity="1" stop-color="rgb(71.231079%, 3.469849%, 1.049805%)" offset="0.277344"/><stop stop-opacity="1" stop-color="rgb(70.152283%, 3.964233%, 1.031494%)" offset="0.28125"/><stop stop-opacity="1" stop-color="rgb(69.073486%, 4.458618%, 1.013184%)" offset="0.285156"/><stop stop-opacity="1" stop-color="rgb(67.99469%, 4.953003%, 0.994873%)" offset="0.289062"/><stop stop-opacity="1" stop-color="rgb(66.914368%, 5.445862%, 0.976562%)" offset="0.292969"/><stop stop-opacity="1" stop-color="rgb(65.835571%, 5.940247%, 0.958252%)" offset="0.296875"/><stop stop-opacity="1" stop-color="rgb(64.756775%, 6.433105%, 0.939941%)" offset="0.300781"/><stop stop-opacity="1" stop-color="rgb(63.677979%, 6.92749%, 0.921631%)" offset="0.304688"/><stop stop-opacity="1" stop-color="rgb(62.599182%, 7.420349%, 0.90332%)" offset="0.308594"/><stop stop-opacity="1" stop-color="rgb(61.520386%, 7.914734%, 0.88501%)" offset="0.3125"/><stop stop-opacity="1" stop-color="rgb(60.440063%, 8.407593%, 0.866699%)" offset="0.316406"/><stop stop-opacity="1" stop-color="rgb(59.361267%, 8.901978%, 0.848389%)" offset="0.320312"/><stop stop-opacity="1" stop-color="rgb(58.282471%, 9.396362%, 0.830078%)" offset="0.324219"/><stop stop-opacity="1" stop-color="rgb(57.203674%, 9.890747%, 0.811768%)" offset="0.328125"/><stop stop-opacity="1" stop-color="rgb(56.123352%, 10.383606%, 0.793457%)" offset="0.332031"/><stop stop-opacity="1" stop-color="rgb(55.044556%, 10.877991%, 0.775146%)" offset="0.335938"/><stop stop-opacity="1" stop-color="rgb(53.965759%, 11.37085%, 0.756836%)" offset="0.339844"/><stop stop-opacity="1" stop-color="rgb(52.886963%, 11.865234%, 0.738525%)" offset="0.34375"/><stop stop-opacity="1" stop-color="rgb(51.806641%, 12.358093%, 0.720215%)" offset="0.347656"/><stop stop-opacity="1" stop-color="rgb(50.727844%, 12.852478%, 0.701904%)" offset="0.351562"/><stop stop-opacity="1" stop-color="rgb(49.649048%, 13.345337%, 0.683594%)" offset="0.355469"/><stop stop-opacity="1" stop-color="rgb(48.570251%, 13.839722%, 0.665283%)" offset="0.359375"/><stop stop-opacity="1" stop-color="rgb(47.489929%, 14.334106%, 0.646973%)" offset="0.363281"/><stop stop-opacity="1" stop-color="rgb(46.411133%, 14.828491%, 0.628662%)" offset="0.367188"/><stop stop-opacity="1" stop-color="rgb(45.332336%, 15.32135%, 0.610352%)" offset="0.371094"/><stop stop-opacity="1" stop-color="rgb(44.25354%, 15.815735%, 0.592041%)" offset="0.375"/><stop stop-opacity="1" stop-color="rgb(43.173218%, 16.308594%, 0.57373%)" offset="0.378906"/><stop stop-opacity="1" stop-color="rgb(42.094421%, 16.802979%, 0.55542%)" offset="0.382812"/><stop stop-opacity="1" stop-color="rgb(41.015625%, 17.295837%, 0.537109%)" offset="0.386719"/><stop stop-opacity="1" stop-color="rgb(39.936829%, 17.790222%, 0.518799%)" offset="0.390625"/><stop stop-opacity="1" stop-color="rgb(38.858032%, 18.284607%, 0.500488%)" offset="0.394531"/><stop stop-opacity="1" stop-color="rgb(37.779236%, 18.778992%, 0.482178%)" offset="0.398438"/><stop stop-opacity="1" stop-color="rgb(36.698914%, 19.271851%, 0.463867%)" offset="0.402344"/><stop stop-opacity="1" stop-color="rgb(35.620117%, 19.766235%, 0.445557%)" offset="0.40625"/><stop stop-opacity="1" stop-color="rgb(34.541321%, 20.259094%, 0.42572%)" offset="0.410156"/><stop stop-opacity="1" stop-color="rgb(33.462524%, 20.753479%, 0.40741%)" offset="0.414062"/><stop stop-opacity="1" stop-color="rgb(32.382202%, 21.246338%, 0.389099%)" offset="0.417969"/><stop stop-opacity="1" stop-color="rgb(31.303406%, 21.740723%, 0.370789%)" offset="0.421875"/><stop stop-opacity="1" stop-color="rgb(30.224609%, 22.233582%, 0.352478%)" offset="0.425781"/><stop stop-opacity="1" stop-color="rgb(29.145813%, 22.727966%, 0.334167%)" offset="0.429688"/><stop stop-opacity="1" stop-color="rgb(28.065491%, 23.222351%, 0.315857%)" offset="0.433594"/><stop stop-opacity="1" stop-color="rgb(26.986694%, 23.716736%, 0.297546%)" offset="0.4375"/><stop stop-opacity="1" stop-color="rgb(25.907898%, 24.209595%, 0.279236%)" offset="0.441406"/><stop stop-opacity="1" stop-color="rgb(24.829102%, 24.703979%, 0.260925%)" offset="0.445312"/><stop stop-opacity="1" stop-color="rgb(23.748779%, 25.196838%, 0.242615%)" offset="0.449219"/><stop stop-opacity="1" stop-color="rgb(22.669983%, 25.691223%, 0.224304%)" offset="0.453125"/><stop stop-opacity="1" stop-color="rgb(21.591187%, 26.184082%, 0.205994%)" offset="0.457031"/><stop stop-opacity="1" stop-color="rgb(20.51239%, 26.678467%, 0.187683%)" offset="0.460938"/><stop stop-opacity="1" stop-color="rgb(19.433594%, 27.171326%, 0.169373%)" offset="0.464844"/><stop stop-opacity="1" stop-color="rgb(18.354797%, 27.66571%, 0.151062%)" offset="0.46875"/><stop stop-opacity="1" stop-color="rgb(17.274475%, 28.160095%, 0.132751%)" offset="0.472656"/><stop stop-opacity="1" stop-color="rgb(16.195679%, 28.65448%, 0.114441%)" offset="0.476562"/><stop stop-opacity="1" stop-color="rgb(15.116882%, 29.147339%, 0.0961304%)" offset="0.480469"/><stop stop-opacity="1" stop-color="rgb(14.038086%, 29.641724%, 0.0778198%)" offset="0.484375"/><stop stop-opacity="1" stop-color="rgb(12.957764%, 30.134583%, 0.0595093%)" offset="0.488281"/><stop stop-opacity="1" stop-color="rgb(11.878967%, 30.628967%, 0.0411987%)" offset="0.492188"/><stop stop-opacity="1" stop-color="rgb(10.800171%, 31.121826%, 0.0228882%)" offset="0.496094"/><stop stop-opacity="1" stop-color="rgb(9.721375%, 31.616211%, 0.00457764%)" offset="0.5"/><stop stop-opacity="1" stop-color="rgb(9.960938%, 32.151794%, 0.292969%)" offset="0.503906"/><stop stop-opacity="1" stop-color="rgb(10.202026%, 32.687378%, 0.582886%)" offset="0.507812"/><stop stop-opacity="1" stop-color="rgb(10.665894%, 33.230591%, 0.924683%)" offset="0.511719"/><stop stop-opacity="1" stop-color="rgb(11.129761%, 33.773804%, 1.266479%)" offset="0.515625"/><stop stop-opacity="1" stop-color="rgb(11.592102%, 34.315491%, 1.60675%)" offset="0.519531"/><stop stop-opacity="1" stop-color="rgb(12.055969%, 34.858704%, 1.948547%)" offset="0.523438"/><stop stop-opacity="1" stop-color="rgb(12.519836%, 35.401917%, 2.290344%)" offset="0.527344"/><stop stop-opacity="1" stop-color="rgb(12.983704%, 35.945129%, 2.632141%)" offset="0.53125"/><stop stop-opacity="1" stop-color="rgb(13.446045%, 36.486816%, 2.972412%)" offset="0.535156"/><stop stop-opacity="1" stop-color="rgb(13.909912%, 37.030029%, 3.314209%)" offset="0.539063"/><stop stop-opacity="1" stop-color="rgb(14.373779%, 37.571716%, 3.656006%)" offset="0.542969"/><stop stop-opacity="1" stop-color="rgb(14.837646%, 38.114929%, 3.997803%)" offset="0.546875"/><stop stop-opacity="1" stop-color="rgb(15.299988%, 38.658142%, 4.338074%)" offset="0.550781"/><stop stop-opacity="1" stop-color="rgb(15.763855%, 39.201355%, 4.679871%)" offset="0.554688"/><stop stop-opacity="1" stop-color="rgb(16.227722%, 39.743042%, 5.021667%)" offset="0.558594"/><stop stop-opacity="1" stop-color="rgb(16.691589%, 40.286255%, 5.363464%)" offset="0.5625"/><stop stop-opacity="1" stop-color="rgb(17.153931%, 40.829468%, 5.703735%)" offset="0.566406"/><stop stop-opacity="1" stop-color="rgb(17.617798%, 41.372681%, 6.045532%)" offset="0.570312"/><stop stop-opacity="1" stop-color="rgb(18.080139%, 41.914368%, 6.387329%)" offset="0.574219"/><stop stop-opacity="1" stop-color="rgb(18.544006%, 42.457581%, 6.729126%)" offset="0.578125"/><stop stop-opacity="1" stop-color="rgb(19.007874%, 42.999268%, 7.069397%)" offset="0.582031"/><stop stop-opacity="1" stop-color="rgb(19.471741%, 43.54248%, 7.411194%)" offset="0.585938"/><stop stop-opacity="1" stop-color="rgb(19.934082%, 44.085693%, 7.752991%)" offset="0.589844"/><stop stop-opacity="1" stop-color="rgb(20.397949%, 44.628906%, 8.094788%)" offset="0.59375"/><stop stop-opacity="1" stop-color="rgb(20.861816%, 45.170593%, 8.435059%)" offset="0.597656"/><stop stop-opacity="1" stop-color="rgb(21.325684%, 45.713806%, 8.776855%)" offset="0.601562"/><stop stop-opacity="1" stop-color="rgb(21.788025%, 46.257019%, 9.118652%)" offset="0.605469"/><stop stop-opacity="1" stop-color="rgb(22.251892%, 46.800232%, 9.460449%)" offset="0.609375"/><stop stop-opacity="1" stop-color="rgb(22.715759%, 47.341919%, 9.80072%)" offset="0.613281"/><stop stop-opacity="1" stop-color="rgb(23.179626%, 47.885132%, 10.142517%)" offset="0.617187"/><stop stop-opacity="1" stop-color="rgb(23.641968%, 48.426819%, 10.484314%)" offset="0.621094"/><stop stop-opacity="1" stop-color="rgb(24.105835%, 48.970032%, 10.826111%)" offset="0.625"/><stop stop-opacity="1" stop-color="rgb(24.569702%, 49.513245%, 11.166382%)" offset="0.628906"/><stop stop-opacity="1" stop-color="rgb(25.033569%, 50.056458%, 11.508179%)" offset="0.632813"/><stop stop-opacity="1" stop-color="rgb(25.495911%, 50.598145%, 11.849976%)" offset="0.636719"/><stop stop-opacity="1" stop-color="rgb(25.959778%, 51.141357%, 12.191772%)" offset="0.640625"/><stop stop-opacity="1" stop-color="rgb(26.423645%, 51.68457%, 12.532043%)" offset="0.644531"/><stop stop-opacity="1" stop-color="rgb(26.887512%, 52.227783%, 12.87384%)" offset="0.648438"/><stop stop-opacity="1" stop-color="rgb(27.349854%, 52.76947%, 13.215637%)" offset="0.652344"/><stop stop-opacity="1" stop-color="rgb(27.813721%, 53.312683%, 13.557434%)" offset="0.65625"/><stop stop-opacity="1" stop-color="rgb(28.277588%, 53.85437%, 13.897705%)" offset="0.660156"/><stop stop-opacity="1" stop-color="rgb(28.741455%, 54.397583%, 14.239502%)" offset="0.664062"/><stop stop-opacity="1" stop-color="rgb(29.203796%, 54.940796%, 14.581299%)" offset="0.667969"/><stop stop-opacity="1" stop-color="rgb(29.667664%, 55.484009%, 14.923096%)" offset="0.671875"/><stop stop-opacity="1" stop-color="rgb(30.131531%, 56.025696%, 15.264893%)" offset="0.675781"/><stop stop-opacity="1" stop-color="rgb(30.595398%, 56.568909%, 15.606689%)" offset="0.679688"/><stop stop-opacity="1" stop-color="rgb(31.057739%, 57.112122%, 15.94696%)" offset="0.683594"/><stop stop-opacity="1" stop-color="rgb(31.521606%, 57.655334%, 16.288757%)" offset="0.6875"/><stop stop-opacity="1" stop-color="rgb(31.985474%, 58.197021%, 16.630554%)" offset="0.691406"/><stop stop-opacity="1" stop-color="rgb(32.449341%, 58.740234%, 16.972351%)" offset="0.695312"/><stop stop-opacity="1" stop-color="rgb(32.911682%, 59.281921%, 17.312622%)" offset="0.699219"/><stop stop-opacity="1" stop-color="rgb(33.375549%, 59.825134%, 17.654419%)" offset="0.703125"/><stop stop-opacity="1" stop-color="rgb(33.839417%, 60.368347%, 17.996216%)" offset="0.707031"/><stop stop-opacity="1" stop-color="rgb(34.303284%, 60.91156%, 18.338013%)" offset="0.710937"/><stop stop-opacity="1" stop-color="rgb(34.765625%, 61.453247%, 18.678284%)" offset="0.714844"/><stop stop-opacity="1" stop-color="rgb(35.229492%, 61.99646%, 19.020081%)" offset="0.71875"/><stop stop-opacity="1" stop-color="rgb(35.691833%, 62.539673%, 19.361877%)" offset="0.722656"/><stop stop-opacity="1" stop-color="rgb(36.155701%, 63.082886%, 19.703674%)" offset="0.726562"/><stop stop-opacity="1" stop-color="rgb(36.619568%, 63.624573%, 20.043945%)" offset="0.730469"/><stop stop-opacity="1" stop-color="rgb(37.083435%, 64.167786%, 20.385742%)" offset="0.734375"/><stop stop-opacity="1" stop-color="rgb(37.545776%, 64.710999%, 20.727539%)" offset="0.738281"/><stop stop-opacity="1" stop-color="rgb(38.009644%, 65.254211%, 21.069336%)" offset="0.742188"/><stop stop-opacity="1" stop-color="rgb(38.473511%, 65.795898%, 21.409607%)" offset="0.746094"/><stop stop-opacity="1" stop-color="rgb(38.937378%, 66.339111%, 21.751404%)" offset="0.75"/><stop stop-opacity="1" stop-color="rgb(39.077759%, 66.503906%, 21.855164%)" offset="0.808915"/><stop stop-opacity="1" stop-color="rgb(39.219666%, 66.668701%, 21.958923%)" offset="1"/></linearGradient><clipPath id="06990b54ce"><rect x="0" width="1093" y="0" height="259"/></clipPath><clipPath id="ff6e8c173d"><path d="M 0.640625 0.992188 L 1092.640625 0.992188 L 1092.640625 258.992188 L 0.640625 258.992188 Z M 0.640625 0.992188 " clip-rule="nonzero"/></clipPath><clipPath id="e73ccf554f"><rect x="0" width="1093" y="0" height="259"/></clipPath><clipPath id="3ee160d01a"><rect x="0" width="1093" y="0" height="259"/></clipPath><mask id="f2f797da75"><g filter="url(#1765dfd1ee)"><g transform="matrix(1, 0, 0, 1, -0.000000000000056843, 0.000000000000113687)"><g clip-path="url(#3ee160d01a)"><g clip-path="url(#ff6e8c173d)"><g transform="matrix(1, 0, 0, 1, -0.000000000000056843, 0.000000000000113687)"><g clip-path="url(#e73ccf554f)"><g fill="#000000" fill-opacity="1"><g transform="translate(96.642286, 141.991328)"><g><path d="M 5.421875 0 L 5.421875 -33.59375 L 23.953125 -33.59375 L 23.953125 -30.859375 L 8.359375 -30.859375 L 8.359375 -17.65625 L 22.703125 -17.65625 L 22.703125 -14.96875 L 8.359375 -14.96875 L 8.359375 0 Z M 5.421875 0 "/></g></g></g><g fill="#000000" fill-opacity="1"><g transform="translate(140.322413, 141.991328)"><g><path d="M 5.421875 0 L 5.421875 -33.59375 L 8.359375 -33.59375 L 8.359375 0 Z M 5.421875 0 "/></g></g></g><g fill="#000000" fill-opacity="1"><g transform="translate(170.898506, 141.991328)"><g><path d="M 5.421875 0 L 5.421875 -33.59375 L 8.359375 -33.59375 L 8.359375 -2.78125 L 25.390625 -2.78125 L 25.390625 0 Z M 5.421875 0 "/></g></g></g><g fill="#000000" fill-opacity="1"><g transform="translate(214.722598, 141.991328)"><g><path d="M 5.421875 0 L 5.421875 -33.59375 L 25.203125 -33.59375 L 25.203125 -30.859375 L 8.359375 -30.859375 L 8.359375 -18.484375 L 23.953125 -18.484375 L 23.953125 -15.796875 L 8.359375 -15.796875 L 8.359375 -2.734375 L 25.734375 -2.734375 L 25.734375 0 Z M 5.421875 0 "/></g></g></g><g fill="#000000" fill-opacity="1"><g transform="translate(260.754714, 141.991328)"><g/></g></g><g fill="#000000" fill-opacity="1"><g transform="translate(287.874783, 141.991328)"><g><path d="M 13.390625 0 L 13.390625 -30.8125 L 1.828125 -30.8125 L 1.828125 -33.59375 L 27.890625 -33.59375 L 27.890625 -30.8125 L 16.265625 -30.8125 L 16.265625 0 Z M 13.390625 0 "/></g></g></g><g fill="#000000" fill-opacity="1"><g transform="translate(334.38691, 141.991328)"><g><path d="M 5.421875 0 L 5.421875 -33.59375 L 17.859375 -33.59375 C 20.128906 -33.59375 22.09375 -33.160156 23.75 -32.296875 C 25.414062 -31.441406 26.710938 -30.238281 27.640625 -28.6875 C 28.578125 -27.132812 29.046875 -25.285156 29.046875 -23.140625 C 29.046875 -20.347656 28.273438 -18.046875 26.734375 -16.234375 C 25.203125 -14.429688 23.109375 -13.304688 20.453125 -12.859375 L 29.5625 0 L 26.0625 0 L 17.046875 -12.625 L 8.359375 -12.625 L 8.359375 0 Z M 8.359375 -15.40625 L 17.5625 -15.40625 C 20.21875 -15.40625 22.296875 -16.09375 23.796875 -17.46875 C 25.304688 -18.84375 26.0625 -20.734375 26.0625 -23.140625 C 26.0625 -25.503906 25.304688 -27.375 23.796875 -28.75 C 22.296875 -30.125 20.21875 -30.8125 17.5625 -30.8125 L 8.359375 -30.8125 Z M 8.359375 -15.40625 "/></g></g></g><g fill="#000000" fill-opacity="1"><g transform="translate(383.299, 141.991328)"><g><path d="M 1.0625 0 L 14.96875 -33.59375 L 17.765625 -33.59375 L 31.6875 0 L 28.609375 0 L 25.109375 -8.453125 L 7.625 -8.453125 L 4.171875 0 Z M 8.78125 -11.140625 L 24 -11.140625 L 16.375 -29.609375 Z M 8.78125 -11.140625 "/></g></g></g><g fill="#000000" fill-opacity="1"><g transform="translate(431.587112, 141.991328)"><g><path d="M 20.109375 0.625 C 16.816406 0.625 13.890625 -0.117188 11.328125 -1.609375 C 8.765625 -3.097656 6.75 -5.15625 5.28125 -7.78125 C 3.8125 -10.40625 3.078125 -13.410156 3.078125 -16.796875 C 3.078125 -20.222656 3.8125 -23.238281 5.28125 -25.84375 C 6.75 -28.457031 8.765625 -30.503906 11.328125 -31.984375 C 13.890625 -33.472656 16.816406 -34.21875 20.109375 -34.21875 C 22.671875 -34.21875 25.039062 -33.742188 27.21875 -32.796875 C 29.394531 -31.859375 31.265625 -30.53125 32.828125 -28.8125 C 34.398438 -27.101562 35.550781 -25.066406 36.28125 -22.703125 L 33.21875 -22.703125 C 32.257812 -25.359375 30.609375 -27.453125 28.265625 -28.984375 C 25.929688 -30.523438 23.226562 -31.296875 20.15625 -31.296875 C 17.4375 -31.296875 15.015625 -30.6875 12.890625 -29.46875 C 10.765625 -28.25 9.09375 -26.550781 7.875 -24.375 C 6.65625 -22.207031 6.046875 -19.679688 6.046875 -16.796875 C 6.046875 -13.953125 6.65625 -11.429688 7.875 -9.234375 C 9.09375 -7.046875 10.765625 -5.34375 12.890625 -4.125 C 15.015625 -2.90625 17.4375 -2.296875 20.15625 -2.296875 C 23.289062 -2.296875 26.066406 -3.097656 28.484375 -4.703125 C 30.898438 -6.304688 32.570312 -8.5 33.5 -11.28125 L 36.578125 -11.28125 C 35.898438 -8.882812 34.757812 -6.785156 33.15625 -4.984375 C 31.5625 -3.191406 29.648438 -1.804688 27.421875 -0.828125 C 25.203125 0.140625 22.765625 0.625 20.109375 0.625 Z M 20.109375 0.625 "/></g></g></g><g fill="#000000" fill-opacity="1"><g transform="translate(487.843242, 141.991328)"><g><path d="M 5.421875 0 L 5.421875 -33.59375 L 8.359375 -33.59375 L 8.359375 -18.484375 L 13.6875 -18.484375 C 16.300781 -18.484375 18.253906 -18.945312 19.546875 -19.875 C 20.847656 -20.800781 21.882812 -22.253906 22.65625 -24.234375 L 26.203125 -33.59375 L 29.28125 -33.59375 L 25.25 -23.09375 C 24.738281 -21.71875 24.113281 -20.546875 23.375 -19.578125 C 22.632812 -18.617188 21.722656 -17.835938 20.640625 -17.234375 L 30.671875 0 L 27.3125 0 L 17.953125 -16.171875 C 16.765625 -15.859375 15.34375 -15.703125 13.6875 -15.703125 L 8.359375 -15.703125 L 8.359375 0 Z M 5.421875 0 "/></g></g></g><g fill="#000000" fill-opacity="1"><g transform="translate(537.379356, 141.991328)"><g><path d="M 5.421875 0 L 5.421875 -33.59375 L 8.359375 -33.59375 L 8.359375 0 Z M 5.421875 0 "/></g></g></g><g fill="#000000" fill-opacity="1"><g transform="translate(567.955449, 141.991328)"><g><path d="M 5.421875 0 L 5.421875 -33.59375 L 8.15625 -33.59375 L 28.609375 -5.046875 L 28.609375 -33.59375 L 31.484375 -33.59375 L 31.484375 0 L 28.75 0 L 8.296875 -28.609375 L 8.296875 0 Z M 5.421875 0 "/></g></g></g><g fill="#000000" fill-opacity="1"><g transform="translate(621.667603, 141.991328)"><g><path d="M 20.0625 0.625 C 16.769531 0.625 13.84375 -0.117188 11.28125 -1.609375 C 8.71875 -3.097656 6.707031 -5.15625 5.25 -7.78125 C 3.800781 -10.40625 3.078125 -13.410156 3.078125 -16.796875 C 3.078125 -20.191406 3.800781 -23.203125 5.25 -25.828125 C 6.707031 -28.453125 8.707031 -30.503906 11.25 -31.984375 C 13.800781 -33.472656 16.707031 -34.21875 19.96875 -34.21875 C 22.5625 -34.21875 24.9375 -33.753906 27.09375 -32.828125 C 29.257812 -31.898438 31.109375 -30.613281 32.640625 -28.96875 C 34.171875 -27.320312 35.289062 -25.410156 36 -23.234375 L 32.828125 -23.234375 C 31.773438 -25.722656 30.144531 -27.6875 27.9375 -29.125 C 25.726562 -30.570312 23.117188 -31.296875 20.109375 -31.296875 C 17.328125 -31.296875 14.878906 -30.6875 12.765625 -29.46875 C 10.648438 -28.25 9 -26.550781 7.8125 -24.375 C 6.632812 -22.207031 6.046875 -19.679688 6.046875 -16.796875 C 6.046875 -13.953125 6.632812 -11.429688 7.8125 -9.234375 C 9 -7.046875 10.65625 -5.34375 12.78125 -4.125 C 14.914062 -2.90625 17.359375 -2.296875 20.109375 -2.296875 C 22.734375 -2.296875 25.035156 -2.832031 27.015625 -3.90625 C 29.003906 -4.976562 30.597656 -6.46875 31.796875 -8.375 C 32.992188 -10.28125 33.691406 -12.445312 33.890625 -14.875 L 19.015625 -14.875 L 19.015625 -17.65625 L 37.015625 -17.65625 C 37.046875 -14.113281 36.351562 -10.960938 34.9375 -8.203125 C 33.53125 -5.453125 31.554688 -3.289062 29.015625 -1.71875 C 26.472656 -0.15625 23.488281 0.625 20.0625 0.625 Z M 20.0625 0.625 "/></g></g></g><g fill="#000000" fill-opacity="1"><g transform="translate(677.059748, 141.991328)"><g/></g></g><g fill="#000000" fill-opacity="1"><g transform="translate(705.907829, 141.991328)"><g><path d="M 16.21875 0.625 C 13.664062 0.625 11.4375 0.191406 9.53125 -0.671875 C 7.625 -1.535156 6.140625 -2.765625 5.078125 -4.359375 C 4.023438 -5.960938 3.453125 -7.835938 3.359375 -9.984375 L 6.234375 -9.984375 C 6.398438 -7.515625 7.378906 -5.59375 9.171875 -4.21875 C 10.960938 -2.84375 13.3125 -2.15625 16.21875 -2.15625 C 18.976562 -2.15625 21.15625 -2.722656 22.75 -3.859375 C 24.351562 -4.992188 25.15625 -6.539062 25.15625 -8.5 C 25.15625 -10.257812 24.414062 -11.691406 22.9375 -12.796875 C 21.46875 -13.898438 19.035156 -14.816406 15.640625 -15.546875 C 11.515625 -16.503906 8.523438 -17.734375 6.671875 -19.234375 C 4.816406 -20.742188 3.890625 -22.765625 3.890625 -25.296875 C 3.890625 -27.984375 4.910156 -30.140625 6.953125 -31.765625 C 9.003906 -33.398438 11.820312 -34.21875 15.40625 -34.21875 C 19.113281 -34.21875 22.03125 -33.320312 24.15625 -31.53125 C 26.289062 -29.738281 27.421875 -27.226562 27.546875 -24 L 24.671875 -24 C 24.546875 -26.363281 23.671875 -28.191406 22.046875 -29.484375 C 20.429688 -30.785156 18.21875 -31.4375 15.40625 -31.4375 C 12.6875 -31.4375 10.570312 -30.875 9.0625 -29.75 C 7.5625 -28.632812 6.8125 -27.148438 6.8125 -25.296875 C 6.8125 -23.628906 7.523438 -22.242188 8.953125 -21.140625 C 10.378906 -20.035156 12.851562 -19.082031 16.375 -18.28125 C 20.625 -17.289062 23.644531 -16.019531 25.4375 -14.46875 C 27.226562 -12.914062 28.125 -10.941406 28.125 -8.546875 C 28.125 -5.722656 27.050781 -3.488281 24.90625 -1.84375 C 22.769531 -0.195312 19.875 0.625 16.21875 0.625 Z M 16.21875 0.625 "/></g></g></g><g fill="#000000" fill-opacity="1"><g transform="translate(751.891971, 141.991328)"><g><path d="M 13.78125 0 L 13.78125 -12.34375 L 1.0625 -33.59375 L 4.421875 -33.59375 L 15.265625 -15.453125 L 26.0625 -33.59375 L 29.375 -33.59375 L 16.65625 -12.4375 L 16.65625 0 Z M 13.78125 0 "/></g></g></g><g fill="#000000" fill-opacity="1"><g transform="translate(796.964111, 141.991328)"><g><path d="M 16.21875 0.625 C 13.664062 0.625 11.4375 0.191406 9.53125 -0.671875 C 7.625 -1.535156 6.140625 -2.765625 5.078125 -4.359375 C 4.023438 -5.960938 3.453125 -7.835938 3.359375 -9.984375 L 6.234375 -9.984375 C 6.398438 -7.515625 7.378906 -5.59375 9.171875 -4.21875 C 10.960938 -2.84375 13.3125 -2.15625 16.21875 -2.15625 C 18.976562 -2.15625 21.15625 -2.722656 22.75 -3.859375 C 24.351562 -4.992188 25.15625 -6.539062 25.15625 -8.5 C 25.15625 -10.257812 24.414062 -11.691406 22.9375 -12.796875 C 21.46875 -13.898438 19.035156 -14.816406 15.640625 -15.546875 C 11.515625 -16.503906 8.523438 -17.734375 6.671875 -19.234375 C 4.816406 -20.742188 3.890625 -22.765625 3.890625 -25.296875 C 3.890625 -27.984375 4.910156 -30.140625 6.953125 -31.765625 C 9.003906 -33.398438 11.820312 -34.21875 15.40625 -34.21875 C 19.113281 -34.21875 22.03125 -33.320312 24.15625 -31.53125 C 26.289062 -29.738281 27.421875 -27.226562 27.546875 -24 L 24.671875 -24 C 24.546875 -26.363281 23.671875 -28.191406 22.046875 -29.484375 C 20.429688 -30.785156 18.21875 -31.4375 15.40625 -31.4375 C 12.6875 -31.4375 10.570312 -30.875 9.0625 -29.75 C 7.5625 -28.632812 6.8125 -27.148438 6.8125 -25.296875 C 6.8125 -23.628906 7.523438 -22.242188 8.953125 -21.140625 C 10.378906 -20.035156 12.851562 -19.082031 16.375 -18.28125 C 20.625 -17.289062 23.644531 -16.019531 25.4375 -14.46875 C 27.226562 -12.914062 28.125 -10.941406 28.125 -8.546875 C 28.125 -5.722656 27.050781 -3.488281 24.90625 -1.84375 C 22.769531 -0.195312 19.875 0.625 16.21875 0.625 Z M 16.21875 0.625 "/></g></g></g><g fill="#000000" fill-opacity="1"><g transform="translate(843.284252, 141.991328)"><g><path d="M 13.390625 0 L 13.390625 -30.8125 L 1.828125 -30.8125 L 1.828125 -33.59375 L 27.890625 -33.59375 L 27.890625 -30.8125 L 16.265625 -30.8125 L 16.265625 0 Z M 13.390625 0 "/></g></g></g><g fill="#000000" fill-opacity="1"><g transform="translate(889.796333, 141.991328)"><g><path d="M 5.421875 0 L 5.421875 -33.59375 L 25.203125 -33.59375 L 25.203125 -30.859375 L 8.359375 -30.859375 L 8.359375 -18.484375 L 23.953125 -18.484375 L 23.953125 -15.796875 L 8.359375 -15.796875 L 8.359375 -2.734375 L 25.734375 -2.734375 L 25.734375 0 Z M 5.421875 0 "/></g></g></g><g fill="#000000" fill-opacity="1"><g transform="translate(935.828494, 141.991328)"><g><path d="M 5.421875 0 L 5.421875 -33.59375 L 8.15625 -33.59375 L 22.125 -12.578125 L 36.09375 -33.59375 L 38.78125 -33.59375 L 38.78125 0 L 35.90625 0 L 35.90625 -28.21875 L 23.328125 -9.359375 L 20.921875 -9.359375 L 8.359375 -28.21875 L 8.359375 0 Z M 5.421875 0 "/></g></g></g></g></g></g></g></g></g></mask><clipPath id="a672246b52"><path d="M 0.640625 0.992188 L 1092.640625 0.992188 L 1092.640625 258.992188 L 0.640625 258.992188 Z M 0.640625 0.992188 " clip-rule="nonzero"/></clipPath><clipPath id="086dd9f114"><rect x="0" width="1093" y="0" height="259"/></clipPath><clipPath id="4f6ba86a0f"><rect x="0" width="1093" y="0" height="259"/></clipPath><clipPath id="84e7b0312e"><rect x="0" width="1096" y="0" height="260"/></clipPath><clipPath id="31b9e4129c"><path d="M 927.589844 719.285156 L 985.339844 719.285156 L 985.339844 806 L 927.589844 806 Z M 927.589844 719.285156 " clip-rule="nonzero"/></clipPath></defs><rect x="-150" width="1800" fill="#ffffff" y="-149.999993" height="1799.99992" fill-opacity="1"/><rect x="-150" width="1800" fill="#fffdf8" y="-149.999993" height="1799.99992" fill-opacity="1"/><g clip-path="url(#24ec83d905)"><g transform="matrix(1, 0, 0, 1, 230, 424)"><g clip-path="url(#3d6c2c0a10)"><g clip-path="url(#fbfd1062d5)"><path fill="#00bf63" d="M 300.296875 328.808594 C 224.371094 352.214844 155.042969 363.707031 102.21875 363.707031 C 74.511719 363.707031 51.347656 360.53125 34.132812 354.277344 C 16.835938 347.976562 5.554688 338.546875 1.683594 326.039062 C 0.71875 322.863281 0.21875 319.507812 0.21875 315.964844 C 0.21875 286.882812 33.808594 250.230469 88.148438 214.492188 C 142.375 178.789062 217.3125 143.96875 300.070312 118.453125 C 375.992188 95.046875 445.320312 83.554688 498.144531 83.554688 C 525.835938 83.554688 549.015625 86.730469 566.230469 92.984375 C 583.511719 99.289062 594.8125 108.71875 598.679688 121.242188 C 599.648438 124.402344 600.148438 127.753906 600.148438 131.300781 C 600.148438 160.378906 566.539062 197.035156 512.214844 232.769531 C 457.992188 268.476562 383.050781 303.308594 300.296875 328.808594 Z M 102.21875 362.886719 C 154.964844 362.886719 224.226562 351.394531 300.070312 328.019531 C 382.746094 302.535156 457.585938 267.734375 511.765625 232.09375 C 565.859375 196.503906 599.324219 160.089844 599.324219 131.300781 C 599.324219 127.835938 598.824219 124.5625 597.890625 121.484375 C 594.101562 109.234375 582.996094 99.964844 565.957031 93.757812 C 548.839844 87.535156 525.757812 84.394531 498.144531 84.394531 C 445.386719 84.394531 376.136719 95.871094 300.296875 119.242188 C 217.617188 144.726562 142.761719 179.527344 88.582031 215.167969 C 34.503906 250.761719 1.039062 287.175781 1.039062 315.964844 C 1.039062 319.429688 1.523438 322.699219 2.472656 325.796875 C 6.246094 338.03125 17.367188 347.300781 34.40625 353.503906 C 51.527344 359.726562 74.609375 362.886719 102.21875 362.886719 " fill-opacity="1" fill-rule="nonzero"/></g><path fill="#00bf63" d="M 108.410156 408.277344 L 108.054688 408.277344 C 108.054688 365.949219 104.527344 362.917969 84.730469 363.113281 L 84.730469 362.402344 C 104.527344 362.210938 108.054688 359.097656 108.054688 316.785156 L 108.234375 316.769531 L 108.410156 316.769531 C 108.410156 359.097656 111.941406 362.144531 131.734375 361.953125 L 131.734375 362.660156 C 111.941406 362.855469 108.410156 365.949219 108.410156 408.277344 " fill-opacity="1" fill-rule="evenodd"/><path fill="#00bf63" d="M 441.871094 176.691406 L 441.597656 176.707031 L 441.324219 176.707031 C 441.324219 113.277344 436.050781 108.71875 406.375 109.007812 L 406.375 107.941406 C 436.050781 107.667969 441.324219 103.011719 441.324219 39.582031 L 441.871094 39.582031 C 441.871094 102.996094 447.15625 107.554688 476.816406 107.265625 L 476.816406 108.332031 C 447.15625 108.621094 441.871094 113.277344 441.871094 176.691406 " fill-opacity="1" fill-rule="evenodd"/><path fill="#00bf63" d="M 390.949219 83.539062 L 390.628906 83.539062 C 390.628906 45.65625 387.46875 42.933594 369.753906 43.113281 L 369.753906 42.484375 C 387.46875 42.304688 390.628906 39.515625 390.628906 1.636719 L 390.949219 1.636719 C 390.949219 39.515625 394.109375 42.242188 411.824219 42.0625 L 411.824219 42.707031 C 394.109375 42.871094 390.949219 45.65625 390.949219 83.539062 " fill-opacity="1" fill-rule="evenodd"/><path fill="#00bf63" d="M 300.296875 324.585938 C 227.417969 347.058594 160.863281 358.082031 110.167969 358.082031 C 83.570312 358.082031 61.324219 355.050781 44.804688 349.039062 C 28.199219 342.996094 17.351562 333.9375 13.660156 321.925781 C 12.726562 318.898438 12.242188 315.671875 12.242188 312.253906 C 12.242188 284.351562 44.496094 249.164062 96.644531 214.847656 C 148.707031 180.59375 220.632812 147.160156 300.070312 122.675781 C 372.945312 100.207031 439.5 89.179688 490.210938 89.179688 C 516.792969 89.179688 539.039062 92.210938 555.558594 98.222656 C 572.164062 104.269531 582.996094 113.328125 586.703125 125.335938 C 587.636719 128.382812 588.121094 131.589844 588.121094 135.007812 C 588.121094 162.910156 555.867188 198.097656 503.722656 232.417969 C 451.65625 266.671875 379.730469 300.101562 300.296875 324.585938 Z M 110.167969 357.292969 C 160.78125 357.292969 227.257812 346.265625 300.070312 323.828125 C 379.425781 299.375 451.285156 265.976562 503.285156 231.753906 C 555.207031 197.582031 587.332031 162.636719 587.332031 135.007812 C 587.332031 131.671875 586.863281 128.527344 585.945312 125.578125 C 582.320312 113.8125 571.648438 104.929688 555.300781 98.964844 C 538.859375 92.984375 516.714844 89.96875 490.210938 89.96875 C 439.566406 89.96875 373.105469 100.996094 300.296875 123.433594 C 220.921875 147.886719 149.078125 181.285156 97.078125 215.507812 C 45.160156 249.679688 13.03125 284.628906 13.03125 312.253906 C 13.03125 315.59375 13.5 318.734375 14.417969 321.703125 C 18.046875 333.453125 28.714844 342.335938 45.0625 348.296875 C 61.503906 354.277344 83.652344 357.292969 110.167969 357.292969 " fill-opacity="1" fill-rule="nonzero"/></g></g></g><g transform="matrix(1, 0, 0, 1, 506, 573)"><g clip-path="url(#3864da9f84)"><g clip-path="url(#88d72b83e1)"><g fill="#fffdf8" fill-opacity="1"><g transform="translate(12.727235, 264.436255)"><g><path d="M 36.480469 29.925781 L -11.683594 29.925781 L -11.683594 -257.925781 L 206.167969 -257.925781 L 206.167969 -166.609375 L 167.058594 -179.226562 C 163.398438 -180.410156 158.386719 -181.648438 152.019531 -182.949219 C 145.085938 -184.363281 137.316406 -185.714844 128.714844 -187.007812 C 120.085938 -188.300781 111.042969 -189.417969 101.582031 -190.355469 C 91.980469 -191.308594 82.566406 -192.078125 73.34375 -192.664062 C 64.398438 -193.230469 56.0625 -193.515625 48.335938 -193.515625 C 49.558594 -193.515625 50.964844 -193.78125 52.546875 -194.316406 C 55.640625 -195.359375 58.382812 -197.125 60.773438 -199.605469 C 63.558594 -202.496094 65.332031 -205.554688 66.101562 -208.773438 C 66.175781 -209.089844 66.21875 -209.292969 66.226562 -209.382812 C 66.195312 -209.027344 66.175781 -208.546875 66.175781 -207.9375 L 66.175781 -135.886719 C 66.175781 -137.957031 65.765625 -140.054688 64.941406 -142.175781 C 63.953125 -144.714844 62.507812 -146.9375 60.605469 -148.839844 C 58.703125 -150.742188 56.480469 -152.1875 53.9375 -153.175781 C 51.816406 -154 49.722656 -154.414062 47.652344 -154.414062 L 183.824219 -154.414062 L 183.824219 -67.007812 L 146.640625 -76.304688 C 140.703125 -77.789062 133.398438 -79.265625 124.734375 -80.734375 C 115.648438 -82.273438 106.179688 -83.703125 96.335938 -85.023438 C 86.65625 -86.324219 77.472656 -87.335938 68.785156 -88.050781 C 60.410156 -88.746094 53.441406 -89.089844 47.878906 -89.089844 C 49.058594 -89.089844 50.332031 -89.289062 51.699219 -89.691406 C 53.8125 -90.304688 55.789062 -91.304688 57.628906 -92.683594 C 60.90625 -95.140625 63.328125 -98.238281 64.890625 -101.976562 C 65.898438 -104.394531 66.40625 -106.730469 66.40625 -108.984375 L 66.40625 29.925781 Z M 36.480469 -29.925781 L 36.480469 0 L 6.554688 0 L 6.554688 -108.984375 C 6.554688 -114.734375 7.59375 -120.089844 9.667969 -125.054688 C 12.292969 -131.335938 16.308594 -136.507812 21.71875 -140.5625 C 29.164062 -146.148438 37.886719 -148.941406 47.878906 -148.941406 C 55.085938 -148.941406 63.699219 -148.527344 73.714844 -147.699219 C 83.417969 -146.898438 93.613281 -145.777344 104.304688 -144.34375 C 114.828125 -142.929688 124.96875 -141.394531 134.730469 -139.742188 C 144.914062 -138.019531 153.722656 -136.226562 161.15625 -134.367188 L 153.898438 -105.335938 L 123.976562 -105.335938 L 123.976562 -124.488281 L 153.898438 -124.488281 L 153.898438 -94.5625 L 47.652344 -94.5625 C 42.238281 -94.5625 37.101562 -95.507812 32.246094 -97.394531 C 26.96875 -99.449219 22.3125 -102.488281 18.285156 -106.519531 C 14.253906 -110.550781 11.210938 -115.203125 9.160156 -120.480469 C 7.269531 -125.339844 6.328125 -130.472656 6.328125 -135.886719 L 6.328125 -207.9375 C 6.328125 -222.210938 10.105469 -233.273438 17.660156 -241.121094 C 22.027344 -245.652344 27.273438 -248.953125 33.410156 -251.023438 C 38.03125 -252.585938 43.007812 -253.363281 48.335938 -253.363281 C 57.328125 -253.363281 66.929688 -253.039062 77.136719 -252.394531 C 87.066406 -251.761719 97.183594 -250.9375 107.492188 -249.914062 C 117.945312 -248.875 127.976562 -247.636719 137.589844 -246.195312 C 147.230469 -244.75 156.027344 -243.214844 163.988281 -241.589844 C 172.519531 -239.847656 179.667969 -238.046875 185.429688 -236.1875 L 176.242188 -207.707031 L 146.320312 -207.707031 L 146.320312 -228 L 176.242188 -228 L 176.242188 -198.074219 L 18.238281 -198.074219 L 18.238281 -228 L 48.164062 -228 L 48.164062 0 L 18.238281 0 L 18.238281 -29.925781 Z M 36.480469 -29.925781 "/></g></g></g></g><g fill="#fffdf8" fill-opacity="1"><g transform="translate(200.371186, 264.436255)"><g><path d="M 13.679688 -257.925781 L 219.164062 -257.925781 L 219.164062 -161.359375 L 176.921875 -180.433594 C 173.625 -181.925781 169.414062 -183.375 164.296875 -184.789062 C 158.148438 -186.484375 151.925781 -188.039062 145.628906 -189.457031 C 139.519531 -190.828125 134.101562 -191.878906 129.367188 -192.613281 C 125.492188 -193.214844 123.253906 -193.515625 122.664062 -193.515625 C 123.886719 -193.515625 125.292969 -193.78125 126.875 -194.316406 C 129.96875 -195.359375 132.710938 -197.125 135.097656 -199.605469 C 137.882812 -202.496094 139.660156 -205.554688 140.429688 -208.773438 C 140.503906 -209.089844 140.546875 -209.292969 140.554688 -209.382812 C 140.523438 -209.027344 140.503906 -208.546875 140.503906 -207.9375 L 140.503906 29.925781 L 62.414062 29.925781 L 62.414062 -207.9375 C 62.414062 -208.546875 62.398438 -209.027344 62.363281 -209.382812 C 62.371094 -209.292969 62.414062 -209.089844 62.492188 -208.773438 C 63.257812 -205.554688 65.035156 -202.496094 67.820312 -199.605469 C 70.210938 -197.125 72.953125 -195.359375 76.042969 -194.316406 C 77.628906 -193.78125 79.03125 -193.515625 80.257812 -193.515625 C 79.664062 -193.515625 77.429688 -193.214844 73.550781 -192.613281 C 68.820312 -191.878906 63.398438 -190.828125 57.292969 -189.457031 C 50.996094 -188.039062 44.773438 -186.484375 38.625 -184.789062 C 33.503906 -183.375 29.296875 -181.925781 25.996094 -180.433594 L -16.246094 -161.359375 L -16.246094 -257.925781 Z M 13.679688 -198.074219 L 13.679688 -228 L 43.605469 -228 L 43.605469 -207.707031 L 13.679688 -207.707031 L 1.363281 -234.980469 C 7.488281 -237.746094 14.601562 -240.246094 22.707031 -242.484375 C 29.78125 -244.433594 36.9375 -246.222656 44.167969 -247.847656 C 51.589844 -249.515625 58.328125 -250.820312 64.386719 -251.757812 C 71.300781 -252.828125 76.589844 -253.363281 80.257812 -253.363281 C 85.582031 -253.363281 90.558594 -252.585938 95.183594 -251.023438 C 101.316406 -248.953125 106.566406 -245.652344 110.929688 -241.121094 C 118.488281 -233.273438 122.265625 -222.210938 122.265625 -207.9375 L 122.265625 0 L 92.339844 0 L 92.339844 -29.925781 L 110.578125 -29.925781 L 110.578125 0 L 80.65625 0 L 80.65625 -207.9375 C 80.65625 -222.210938 84.433594 -233.273438 91.988281 -241.121094 C 96.355469 -245.652344 101.601562 -248.953125 107.738281 -251.023438 C 112.359375 -252.585938 117.335938 -253.363281 122.664062 -253.363281 C 126.328125 -253.363281 131.617188 -252.828125 138.53125 -251.757812 C 144.589844 -250.820312 151.332031 -249.515625 158.75 -247.847656 C 165.984375 -246.222656 173.136719 -244.433594 180.210938 -242.484375 C 188.316406 -240.246094 195.433594 -237.746094 201.558594 -234.980469 L 189.238281 -207.707031 L 159.316406 -207.707031 L 159.316406 -228 L 189.238281 -228 L 189.238281 -198.074219 Z M 13.679688 -198.074219 "/></g></g></g><g fill="#fffdf8" fill-opacity="1"><g transform="translate(387.331145, 264.436255)"><g><path d="M -17.386719 -48.109375 C -17.386719 -54.503906 -16.410156 -60.519531 -14.457031 -66.160156 C -12.28125 -72.449219 -8.984375 -78.042969 -4.574219 -82.945312 C -0.253906 -87.746094 4.636719 -91.472656 10.101562 -94.125 C 16.183594 -97.078125 22.621094 -98.554688 29.410156 -98.554688 C 34.960938 -98.554688 40.320312 -97.53125 45.488281 -95.488281 C 50.191406 -93.628906 54.5625 -90.984375 58.597656 -87.554688 L 99.71875 -52.597656 L 48.289062 -36.234375 C 50.179688 -36.835938 51.992188 -37.835938 53.726562 -39.234375 C 55.925781 -41.011719 57.65625 -43.15625 58.914062 -45.667969 C 59.652344 -47.144531 60.019531 -48.492188 60.019531 -49.703125 C 60.019531 -50.035156 59.988281 -50.296875 59.925781 -50.480469 C 60.046875 -50.125 60.347656 -49.609375 60.824219 -48.9375 C 62.875 -46.027344 65.9375 -43.207031 70.011719 -40.476562 C 74.707031 -37.332031 80.238281 -34.785156 86.613281 -32.835938 C 92.957031 -30.894531 99.652344 -29.925781 106.703125 -29.925781 C 113.925781 -29.925781 120.738281 -30.792969 127.144531 -32.53125 C 132.898438 -34.089844 137.933594 -36.332031 142.246094 -39.253906 C 145.46875 -41.4375 147.945312 -44.046875 149.675781 -47.078125 C 151.085938 -49.554688 151.789062 -52.863281 151.789062 -57 C 151.789062 -60.917969 151.339844 -63.628906 150.441406 -65.132812 C 149.382812 -66.910156 147.871094 -68.363281 145.910156 -69.492188 C 141.734375 -71.898438 136.777344 -73.863281 131.042969 -75.390625 C 123.765625 -77.328125 116.042969 -78.9375 107.875 -80.21875 C 98.585938 -81.679688 89.335938 -83.175781 80.125 -84.710938 C 69.816406 -86.429688 59.945312 -88.671875 50.507812 -91.441406 C 39.523438 -94.667969 29.613281 -99.085938 20.773438 -104.703125 C 10.089844 -111.492188 1.652344 -120.375 -4.527344 -131.347656 C -10.820312 -142.519531 -13.964844 -155.734375 -13.964844 -171 C -13.964844 -188.234375 -9.582031 -203.300781 -0.808594 -216.207031 C 7.191406 -227.984375 17.691406 -237.457031 30.6875 -244.625 C 42.09375 -250.917969 54.605469 -255.515625 68.214844 -258.410156 C 80.984375 -261.125 93.738281 -262.484375 106.476562 -262.484375 C 117.070312 -262.484375 127.957031 -261.65625 139.140625 -259.996094 C 150.964844 -258.238281 162.121094 -255.394531 172.617188 -251.460938 C 184.957031 -246.832031 195.226562 -240.597656 203.425781 -232.753906 C 209.007812 -227.414062 213.257812 -221.320312 216.171875 -214.476562 C 219.078125 -207.652344 220.53125 -200.378906 220.53125 -192.660156 C 220.53125 -184.335938 218.746094 -176.695312 215.167969 -169.738281 C 212.597656 -164.746094 209.132812 -160.453125 204.773438 -156.867188 C 200.953125 -153.726562 196.601562 -151.265625 191.714844 -149.488281 L 158.976562 -137.582031 L 152.144531 -171.742188 C 151.242188 -176.246094 149.175781 -180.054688 145.933594 -183.164062 C 141.246094 -187.671875 135.308594 -191.21875 128.132812 -193.808594 C 120.238281 -196.652344 111.730469 -198.074219 102.601562 -198.074219 C 87.699219 -198.074219 76.566406 -195.300781 69.210938 -189.746094 C 66.882812 -187.992188 65.179688 -185.941406 64.105469 -183.601562 C 62.75 -180.644531 62.074219 -176.824219 62.074219 -172.140625 C 62.074219 -171.78125 62.085938 -171.507812 62.117188 -171.328125 C 62.101562 -171.433594 62.054688 -171.589844 61.976562 -171.800781 C 61.648438 -172.691406 61.136719 -173.492188 60.433594 -174.203125 C 61.855469 -172.757812 64.359375 -171.398438 67.941406 -170.125 C 74.347656 -167.84375 81.707031 -165.9375 90.019531 -164.402344 C 99.730469 -162.609375 109.742188 -160.855469 120.058594 -159.136719 C 131.652344 -157.203125 142.925781 -154.679688 153.882812 -151.558594 C 166.34375 -148.011719 177.675781 -143.152344 187.871094 -136.972656 C 199.976562 -129.640625 209.617188 -120.035156 216.792969 -108.152344 C 224.300781 -95.71875 228.058594 -80.796875 228.058594 -63.382812 C 228.058594 -46.292969 224.042969 -31.078125 216.019531 -17.746094 C 208.425781 -5.121094 198.269531 5.222656 185.554688 13.292969 C 174.105469 20.5625 161.390625 25.957031 147.410156 29.476562 C 134.144531 32.816406 120.578125 34.484375 106.703125 34.484375 C 85.136719 34.484375 65.804688 31.832031 48.703125 26.53125 C 29.734375 20.644531 14.542969 11.945312 3.136719 0.425781 C -3.46875 -6.242188 -8.503906 -13.59375 -11.972656 -21.628906 C -15.582031 -29.992188 -17.386719 -38.820312 -17.386719 -48.109375 Z M 42.464844 -48.109375 C 42.464844 -47.0625 42.636719 -46.140625 42.980469 -45.34375 C 43.464844 -44.222656 44.355469 -43.007812 45.65625 -41.691406 C 50.054688 -37.253906 56.980469 -33.566406 66.433594 -30.632812 C 77.761719 -27.121094 91.183594 -25.363281 106.703125 -25.363281 C 115.632812 -25.363281 124.332031 -26.429688 132.800781 -28.5625 C 140.554688 -30.515625 147.449219 -33.40625 153.480469 -37.234375 C 158.246094 -40.257812 162 -44.050781 164.738281 -48.605469 C 167.050781 -52.445312 168.207031 -57.371094 168.207031 -63.382812 C 168.207031 -69.683594 167.324219 -74.292969 165.5625 -77.210938 C 163.464844 -80.683594 160.566406 -83.539062 156.863281 -85.78125 C 151.253906 -89.179688 144.800781 -91.917969 137.5 -93.996094 C 128.695312 -96.5 119.605469 -98.535156 110.21875 -100.101562 C 99.5625 -101.875 89.207031 -103.691406 79.15625 -105.546875 C 67.710938 -107.660156 57.285156 -110.390625 47.882812 -113.734375 C 35.660156 -118.085938 25.621094 -124.25 17.769531 -132.230469 C 12.433594 -137.652344 8.441406 -143.964844 5.796875 -151.160156 C 3.414062 -157.644531 2.222656 -164.636719 2.222656 -172.140625 C 2.222656 -185.542969 4.71875 -197.679688 9.707031 -208.558594 C 14.980469 -220.050781 22.796875 -229.703125 33.164062 -237.523438 C 51.1875 -251.125 74.335938 -257.925781 102.601562 -257.925781 C 118.703125 -257.925781 133.980469 -255.320312 148.433594 -250.109375 C 163.597656 -244.640625 176.585938 -236.710938 187.402344 -226.324219 C 199.667969 -214.539062 207.476562 -200.257812 210.832031 -183.480469 L 181.488281 -177.613281 L 171.261719 -205.734375 C 169.71875 -205.175781 168.214844 -204.292969 166.753906 -203.089844 C 164.746094 -201.4375 163.144531 -199.445312 161.945312 -197.113281 C 161.101562 -195.476562 160.683594 -193.992188 160.683594 -192.660156 C 160.683594 -192.238281 160.824219 -191.691406 161.109375 -191.023438 C 161.402344 -190.332031 161.71875 -189.824219 162.058594 -189.503906 C 159.769531 -191.691406 156.28125 -193.664062 151.601562 -195.421875 C 145.070312 -197.867188 137.988281 -199.660156 130.355469 -200.792969 C 122.082031 -202.019531 114.125 -202.636719 106.476562 -202.636719 C 97.933594 -202.636719 89.332031 -201.714844 80.667969 -199.871094 C 72.847656 -198.207031 65.824219 -195.65625 59.601562 -192.222656 C 54.964844 -189.664062 51.328125 -186.445312 48.691406 -182.566406 C 46.820312 -179.8125 45.886719 -175.957031 45.886719 -171 C 45.886719 -166.199219 46.464844 -162.773438 47.621094 -160.71875 C 48.886719 -158.472656 50.636719 -156.636719 52.867188 -155.21875 C 56.953125 -152.625 61.785156 -150.507812 67.367188 -148.871094 C 74.496094 -146.777344 82.03125 -145.066406 89.964844 -143.746094 C 98.992188 -142.242188 108.054688 -140.773438 117.160156 -139.34375 C 127.382812 -137.738281 137.140625 -135.699219 146.433594 -133.230469 C 157.265625 -130.347656 167.054688 -126.386719 175.800781 -121.34375 C 186.757812 -115.027344 195.429688 -106.523438 201.816406 -95.835938 C 208.367188 -84.875 211.640625 -71.929688 211.640625 -57 C 211.640625 -42.289062 208.320312 -29.105469 201.671875 -17.445312 C 195.347656 -6.34375 186.726562 2.90625 175.8125 10.296875 C 165.988281 16.953125 154.988281 21.929688 142.808594 25.234375 C 131.277344 28.359375 119.242188 29.925781 106.703125 29.925781 C 93.691406 29.925781 81.160156 28.082031 69.113281 24.398438 C 57.09375 20.722656 46.285156 15.671875 36.691406 9.242188 C 26.480469 2.394531 18.21875 -5.5 11.910156 -14.445312 C 4.082031 -25.546875 0.171875 -37.296875 0.171875 -49.703125 C 0.171875 -57.910156 1.90625 -65.488281 5.382812 -72.433594 C 8.007812 -77.683594 11.597656 -82.148438 16.15625 -85.824219 C 20.246094 -89.121094 24.90625 -91.601562 30.144531 -93.269531 L 39.214844 -64.753906 L 19.835938 -41.949219 C 20.832031 -41.105469 22.046875 -40.398438 23.484375 -39.828125 C 25.382812 -39.078125 27.359375 -38.703125 29.410156 -38.703125 C 31.792969 -38.703125 34.070312 -39.230469 36.238281 -40.28125 C 37.789062 -41.035156 39.015625 -41.910156 39.914062 -42.910156 C 40.90625 -44.011719 41.636719 -45.238281 42.101562 -46.585938 C 42.34375 -47.285156 42.464844 -47.792969 42.464844 -48.109375 Z M 42.464844 -48.109375 "/></g></g></g><g fill="#00bf63" fill-opacity="1"><g transform="translate(12.727235, 264.436255)"><g><path d="M 36.484375 0 L 18.234375 0 L 18.234375 -228 L 176.25 -228 L 176.25 -207.703125 C 171.53125 -209.222656 165.445312 -210.742188 158 -212.265625 C 150.550781 -213.785156 142.265625 -215.226562 133.140625 -216.59375 C 124.023438 -217.96875 114.488281 -219.144531 104.53125 -220.125 C 94.582031 -221.113281 84.816406 -221.910156 75.234375 -222.515625 C 65.660156 -223.128906 56.695312 -223.4375 48.34375 -223.4375 C 44.238281 -223.4375 41.195312 -222.410156 39.21875 -220.359375 C 37.238281 -218.304688 36.25 -214.164062 36.25 -207.9375 L 36.25 -135.890625 C 36.25 -132.546875 37.3125 -129.804688 39.4375 -127.671875 C 41.570312 -125.546875 44.3125 -124.484375 47.65625 -124.484375 L 153.90625 -124.484375 L 153.90625 -105.34375 C 147.21875 -107.007812 139.160156 -108.640625 129.734375 -110.234375 C 120.304688 -111.828125 110.5 -113.304688 100.3125 -114.671875 C 90.132812 -116.046875 80.445312 -117.113281 71.25 -117.875 C 62.050781 -118.632812 54.257812 -119.015625 47.875 -119.015625 C 44.53125 -119.015625 41.796875 -118.21875 39.671875 -116.625 C 37.546875 -115.03125 36.484375 -112.484375 36.484375 -108.984375 Z M 36.484375 0 "/></g></g></g><g fill="#00bf63" fill-opacity="1"><g transform="translate(200.371186, 264.436255)"><g><path d="M 13.6875 -228 L 189.234375 -228 L 189.234375 -207.703125 C 184.523438 -209.835938 178.863281 -211.816406 172.25 -213.640625 C 165.644531 -215.460938 158.957031 -217.132812 152.1875 -218.65625 C 145.425781 -220.175781 139.347656 -221.351562 133.953125 -222.1875 C 128.554688 -223.019531 124.789062 -223.4375 122.65625 -223.4375 C 118.5625 -223.4375 115.523438 -222.410156 113.546875 -220.359375 C 111.566406 -218.304688 110.578125 -214.164062 110.578125 -207.9375 L 110.578125 0 L 92.34375 0 L 92.34375 -207.9375 C 92.34375 -214.164062 91.351562 -218.304688 89.375 -220.359375 C 87.394531 -222.410156 84.351562 -223.4375 80.25 -223.4375 C 78.125 -223.4375 74.363281 -223.019531 68.96875 -222.1875 C 63.570312 -221.351562 57.488281 -220.175781 50.71875 -218.65625 C 43.957031 -217.132812 37.269531 -215.460938 30.65625 -213.640625 C 24.050781 -211.816406 18.394531 -209.835938 13.6875 -207.703125 Z M 13.6875 -228 "/></g></g></g><g fill="#00bf63" fill-opacity="1"><g transform="translate(387.331145, 264.436255)"><g><path d="M 12.546875 -48.109375 C 12.546875 -54.191406 14.253906 -59.128906 17.671875 -62.921875 C 21.085938 -66.722656 25 -68.625 29.40625 -68.625 C 32.90625 -68.625 36.175781 -67.332031 39.21875 -64.75 C 35.875 -63.6875 33.515625 -61.785156 32.140625 -59.046875 C 30.773438 -56.316406 30.09375 -53.203125 30.09375 -49.703125 C 30.09375 -43.617188 32.179688 -37.613281 36.359375 -31.6875 C 40.546875 -25.757812 46.207031 -20.398438 53.34375 -15.609375 C 60.488281 -10.828125 68.660156 -7.03125 77.859375 -4.21875 C 87.054688 -1.40625 96.671875 0 106.703125 0 C 116.585938 0 126.007812 -1.210938 134.96875 -3.640625 C 143.9375 -6.078125 151.953125 -9.6875 159.015625 -14.46875 C 166.085938 -19.257812 171.640625 -25.1875 175.671875 -32.25 C 179.703125 -39.320312 181.71875 -47.570312 181.71875 -57 C 181.71875 -66.425781 179.851562 -74.253906 176.125 -80.484375 C 172.40625 -86.710938 167.3125 -91.6875 160.84375 -95.40625 C 154.382812 -99.132812 147.015625 -102.097656 138.734375 -104.296875 C 130.453125 -106.503906 121.710938 -108.332031 112.515625 -109.78125 C 103.316406 -111.226562 94.15625 -112.710938 85.03125 -114.234375 C 75.914062 -115.753906 67.21875 -117.726562 58.9375 -120.15625 C 50.65625 -122.582031 43.28125 -125.847656 36.8125 -129.953125 C 30.351562 -134.054688 25.257812 -139.414062 21.53125 -146.03125 C 17.8125 -152.644531 15.953125 -160.96875 15.953125 -171 C 15.953125 -182.09375 18.613281 -191.550781 23.9375 -199.375 C 29.257812 -207.207031 36.328125 -213.554688 45.140625 -218.421875 C 53.960938 -223.285156 63.726562 -226.859375 74.4375 -229.140625 C 85.15625 -231.421875 95.832031 -232.5625 106.46875 -232.5625 C 115.59375 -232.5625 125.019531 -231.835938 134.75 -230.390625 C 144.476562 -228.953125 153.597656 -226.632812 162.109375 -223.4375 C 170.617188 -220.25 177.492188 -216.144531 182.734375 -211.125 C 187.984375 -206.113281 190.609375 -199.957031 190.609375 -192.65625 C 190.609375 -189.164062 189.921875 -186.085938 188.546875 -183.421875 C 187.179688 -180.765625 184.828125 -178.828125 181.484375 -177.609375 C 179.359375 -188.253906 174.421875 -197.300781 166.671875 -204.75 C 158.921875 -212.195312 149.457031 -217.929688 138.28125 -221.953125 C 127.113281 -225.984375 115.21875 -228 102.59375 -228 C 81.007812 -228 63.867188 -223.207031 51.171875 -213.625 C 38.484375 -204.050781 32.140625 -190.222656 32.140625 -172.140625 C 32.140625 -164.234375 34.457031 -157.921875 39.09375 -153.203125 C 43.738281 -148.492188 50.007812 -144.734375 57.90625 -141.921875 C 65.8125 -139.117188 74.703125 -136.800781 84.578125 -134.96875 C 94.460938 -133.144531 104.648438 -131.359375 115.140625 -129.609375 C 125.628906 -127.867188 135.8125 -125.59375 145.6875 -122.78125 C 155.570312 -119.96875 164.460938 -116.164062 172.359375 -111.375 C 180.265625 -106.59375 186.535156 -100.363281 191.171875 -92.6875 C 195.804688 -85.007812 198.125 -75.242188 198.125 -63.390625 C 198.125 -51.835938 195.539062 -41.765625 190.375 -33.171875 C 185.207031 -24.585938 178.253906 -17.519531 169.515625 -11.96875 C 160.773438 -6.414062 150.96875 -2.273438 140.09375 0.453125 C 129.226562 3.191406 118.097656 4.5625 106.703125 4.5625 C 88.160156 4.5625 71.78125 2.359375 57.5625 -2.046875 C 43.351562 -6.453125 32.296875 -12.644531 24.390625 -20.625 C 16.492188 -28.613281 12.546875 -37.773438 12.546875 -48.109375 Z M 12.546875 -48.109375 "/></g></g></g></g></g><g transform="matrix(1, 0, 0, 1, 272, 763)"><g clip-path="url(#84e7b0312e)"><g clip-path="url(#64e8e56c78)"><g transform="matrix(1, 0, 0, 1, -0.000000000000056843, 0.000000000000113687)"><g clip-path="url(#4f6ba86a0f)"><g clip-path="url(#657a3457f4)"><g mask="url(#f2f797da75)"><g transform="matrix(1, 0, 0, 1, -0.000000000000056843, 0.000000000000113687)"><g clip-path="url(#086dd9f114)"><g clip-path="url(#a672246b52)"><path fill="url(#01e22e49b2)" d="M 0.640625 0.992188 L 0.640625 258.992188 L 1092.640625 258.992188 L 1092.640625 0.992188 Z M 0.640625 0.992188 " fill-rule="nonzero"/></g></g></g></g></g></g></g></g></g></g><g clip-path="url(#31b9e4129c)"><path fill="#00bf63" d="M 984.824219 762.144531 C 963.507812 762.144531 956.871094 756.332031 956.871094 719.996094 C 956.871094 719.75 956.671875 719.550781 956.429688 719.550781 C 956.183594 719.550781 955.984375 719.75 955.984375 719.996094 C 955.984375 752.140625 952.128906 762.144531 928.03125 762.144531 C 927.789062 762.144531 927.589844 762.34375 927.589844 762.589844 C 927.589844 762.835938 927.789062 763.03125 928.03125 763.03125 C 949.347656 763.03125 955.984375 768.847656 955.984375 805.183594 C 955.984375 805.425781 956.183594 805.625 956.429688 805.625 C 956.671875 805.625 956.871094 805.425781 956.871094 805.183594 C 956.871094 773.039062 960.726562 763.03125 984.824219 763.03125 C 985.070312 763.03125 985.265625 762.835938 985.265625 762.589844 C 985.265625 762.34375 985.070312 762.144531 984.824219 762.144531 Z M 984.824219 762.144531 " fill-opacity="1" fill-rule="nonzero"/></g></svg>